<svg t="1661674922341" class="icon" viewBox="0 0 1024 1024" version="1.1" xmlns="http://www.w3.org/2000/svg" p-id="3158" width="370" height="370"><path d="M511.99 443.17c-19.07 0-36.21 7.88-48.65 20.04-12.44 12.44-20.18 29.72-20.18 48.66 0 19.07 7.74 36.2 20.18 48.65 12.44 12.16 29.58 20.18 48.65 20.18 18.94 0 36.22-8.03 48.52-20.18 12.44-12.44 20.18-29.58 20.18-48.65 0-18.94-7.74-36.22-20.18-48.66-12.3-12.16-29.58-20.04-48.52-20.04z m0 88.19c-10.77 0-19.35-8.72-19.35-19.49 0-10.79 8.58-19.49 19.35-19.49 10.79 0 19.36 8.7 19.36 19.49 0.01 10.78-8.57 19.49-19.36 19.49z" fill="#0e0f11" p-id="3159"></path><path d="M511.99 297.62c-59.15 0-112.78 24.05-151.49 62.75-38.84 38.71-62.75 92.34-62.75 151.51 0 59.15 23.91 112.65 62.75 151.49 38.71 38.7 92.34 62.75 151.49 62.75 59.16 0 112.79-24.05 151.51-62.75 38.7-38.84 62.6-92.34 62.6-151.49 0-59.16-23.91-112.79-62.6-151.51-38.71-38.7-92.34-62.75-151.51-62.75z m65.11 279.49c-16.73 16.59-39.82 26.81-65.11 26.81-25.42 0-48.51-10.22-65.09-26.81-16.73-16.59-26.96-39.82-26.96-65.24 0-25.44 10.23-48.38 26.96-65.25 16.59-16.59 39.67-26.81 65.09-26.81 25.29 0 48.38 10.22 65.11 26.81 16.59 16.87 26.95 39.82 26.95 65.25 0 25.42-10.36 48.65-26.95 65.24z" fill="#0e0f11" p-id="3160"></path><path d="M512 64C264.58 64 64 264.58 64 512s200.58 448 448 448 448-200.58 448-448S759.42 64 512 64z m179.14 626.87c-45.9 45.74-109.2 74.22-179.15 74.22-69.94 0-133.25-28.48-178.85-74.22-45.9-45.75-74.37-109.06-74.37-178.99 0-69.95 28.46-133.26 74.37-179.01 45.61-45.89 108.92-73.96 178.85-73.96 69.95 0 133.25 28.07 179.15 73.96 45.6 45.75 74.08 109.06 74.08 179.01 0 69.93-28.47 133.24-74.08 178.99z" fill="#0e0f11" p-id="3161"></path></svg>