<?xml version="1.0" standalone="no"?><!DOCTYPE svg PUBLIC "-//W3C//DTD SVG 1.1//EN" "http://www.w3.org/Graphics/SVG/1.1/DTD/svg11.dtd"><svg t="1668406507381" class="icon" viewBox="0 0 1024 1024" version="1.1" xmlns="http://www.w3.org/2000/svg" p-id="2637" xmlns:xlink="http://www.w3.org/1999/xlink" width="32" height="32"><path d="M957.2 0H378.4c-36.8 0-66.8 29.4-66.8 65.6v662.7c-32.7-37-80.4-60.5-133.6-60.5-98.1 0-178 79.9-178 178.1S79.9 1024 178.1 1024c98.2 0 178.1-79.9 178.1-178.1V65.6c0-11.6 10-21.1 22.3-21.1h578.8c12.3 0 22.3 9.5 22.3 21.1v662.7c-32.7-37-80.4-60.5-133.6-60.5-98.2 0-178.1 79.9-178.1 178.1s79.8 178.1 178 178.1S1024 944.1 1024 845.9V65.6C1024 29.4 994 0 957.2 0zM178.1 979.5c-73.6 0-133.6-59.9-133.6-133.6s59.9-133.6 133.6-133.6 133.6 59.9 133.6 133.6-60 133.6-133.6 133.6z m667.8 0c-73.6 0-133.6-59.9-133.6-133.6s59.9-133.6 133.6-133.6 133.6 59.9 133.6 133.6-59.9 133.6-133.6 133.6z" fill="" p-id="2638"></path></svg>